<svg xmlns="http://www.w3.org/2000/svg" viewBox="0 0 512 512" style="enable-background:new 0 0 512 512" xml:space="preserve"><style>.st1{fill:#3d2a3d}.st12{fill:#fff}.st25{fill:#a37352}</style><path d="M0 256C0 114.6 114.6 0 256 0s256 114.6 256 256-114.6 256-256 256S0 397.4 0 256z" style="fill:#9ec853" id="Layer_9"/><g id="Layer_7"><circle class="st12" cx="259.5" cy="253" r="180"/><path class="st1" d="m218.7 185.2-114.2 86.7c-16.2 20.8-16.1 48.5.2 61.8l2.1 1.8c16.3 13.3 42.6 7.3 58.8-13.6l57.1-133.4-4-3.3zM300.3 185.2l114.2 86.7c16.2 20.8 16.1 48.5-.2 61.8l-2.1 1.8c-16.3 13.3-42.6 7.3-58.8-13.6l-57.1-133.4 4-3.3z"/><path class="st25" d="M239.4 172c-16.4 0-34.3 13.8-39.7 30.9l-29.6 93.9c-5.4 17.1 3.6 31.2 20.1 31.2h138.6c16.4 0 25.5-14.2 20.1-31.3L319.2 203c-5.4-17.1-23.3-31-39.7-31h-40.1z"/><path class="st25" d="M353 320.5c0 39-41.9 70.5-93.5 70.5S166 359.4 166 320.5c0-39 41.9-70.5 93.5-70.5 51.6-.1 93.5 31.5 93.5 70.5z"/><path class="st1" d="M234.9 260.4c0 6.3-5.1 11.5-11.5 11.5-6.3 0-11.5-5.1-11.5-11.5 0-6.3 5.1-11.5 11.5-11.5s11.5 5.1 11.5 11.5zM307 260.4c0 6.3-5.1 11.5-11.5 11.5-6.3 0-11.5-5.1-11.5-11.5 0-6.3 5.1-11.5 11.5-11.5S307 254 307 260.4z"/><path class="st12" d="M315 341c0 16-13 29-29 29h-52c-16 0-29-13-29-29s13-29 29-29h52c16 0 29 13 29 29z"/><path class="st12" d="M297.7 315.1c0 17-17.1 30.8-38.2 30.8s-38.2-13.8-38.2-30.8 17.1-30.8 38.2-30.8 38.2 13.8 38.2 30.8z"/><g><path class="st1" d="M292.7 291.7c0 9.4-33.2 27.3-33.2 27.3s-33.2-18-33.2-27.3c0-9.4 14.9-11.7 33.2-11.7 18.3 0 33.2 2.3 33.2 11.7z"/><path class="st1" d="M266 344.7c0 3.5-2.8 6.3-6.3 6.3h-.4c-3.5 0-6.3-2.8-6.3-6.3v-33.4c0-3.5 2.8-6.3 6.3-6.3h.4c3.5 0 6.3 2.8 6.3 6.3v33.4z"/></g><g><path class="st1" d="M280.6 341.7c-.3 11.1-9.4 19.7-21.1 19.9-11.7.3-20.8-9.3-21.1-19.9-.2-6.9-11.5-6.9-11.3 0 .4 16.9 14.5 30.2 32.4 30.6 17.9.4 32-14.3 32.4-30.6.2-6.9-11.1-6.9-11.3 0z"/></g></g></svg>